<mxfile host="app.diagrams.net" modified="2024-04-28T13:33:50.284Z" agent="Mozilla/5.0 (Windows NT 10.0; Win64; x64) AppleWebKit/537.36 (KHTML, like Gecko) Chrome/124.0.0.0 Safari/537.36" version="22.1.16" etag="sE-Fkzi_K0AnBamPDCPG" type="github">
  <diagram name="第 1 页" id="k52V0tFK2tN3edU5XVQP">
    <mxGraphModel>
      <root>
        <mxCell id="0" />
        <mxCell id="1" parent="0" />
      </root>
    </mxGraphModel>
  </diagram>
</mxfile>
